<?xml version="1.0" encoding="UTF-8"?>
<svg id="Layer_1" xmlns="http://www.w3.org/2000/svg" version="1.1" viewBox="0 0 2358.9 545.7">
  <!-- Generator: Adobe Illustrator 29.4.0, SVG Export Plug-In . SVG Version: 2.1.0 Build 152)  -->
  <defs>
    <style>
      .st0 {
        fill: #1d3375;
      }

      .st1 {
        fill: #ce0921;
      }

      .st2 {
        fill: #fff;
      }
    </style>
  </defs>
  <g>
    <path class="st1" d="M427.1,199.5c27.1,0,46.7,6.3,58.8,18.9,12.1,12.6,18.2,31.6,18.2,57.1v11.8c0,17-2.7,31-8,42-5.4,11-13.9,19.2-25.5,24.6,14.2,5.4,24.2,14.1,30,26.2,5.8,12.1,8.7,27,8.7,44.6v26.9c0,25.5-6.6,44.9-19.8,58.3-13.2,13.4-32.9,20.1-59,20.1h-81.7V199.5h78.4ZM400.7,246.7v87.4h20.3c9.8,0,17.4-2.5,22.9-7.6,5.5-5,8.3-14.2,8.3-27.4v-18.4c0-12-2.1-20.6-6.4-26-4.2-5.3-10.9-8-20.1-8h-25ZM400.7,381.3v101.5h29.8c8.8,0,15.5-2.4,20.1-7.1,4.6-4.7,6.8-13.2,6.8-25.5v-28.8c0-15.4-2.6-26-7.8-31.6-5.2-5.7-13.8-8.5-25.7-8.5h-23.1Z"/>
    <path class="st1" d="M545.2,199.5h51.9v283.3h85.5v47.2h-137.4V199.5Z"/>
    <path class="st1" d="M705.7,278.8c0-26.8,6.8-47.3,20.3-61.6,13.5-14.3,33.1-21.5,58.6-21.5s45,7.2,58.6,21.5c13.5,14.3,20.3,34.9,20.3,61.6v171.9c0,26.8-6.8,47.3-20.3,61.6-13.5,14.3-33.1,21.5-58.6,21.5s-45-7.2-58.6-21.5c-13.5-14.3-20.3-34.9-20.3-61.6v-171.9ZM757.7,454c0,12,2.4,20.4,7.3,25.3,4.9,4.9,11.4,7.3,19.6,7.3s14.7-2.4,19.6-7.3c4.9-4.9,7.3-13.3,7.3-25.3v-178.5c0-12-2.4-20.4-7.3-25.3-4.9-4.9-11.4-7.3-19.6-7.3s-14.7,2.4-19.6,7.3-7.3,13.3-7.3,25.3v178.5Z"/>
    <path class="st1" d="M897.5,278.8c0-26.8,6.8-47.3,20.3-61.6,13.5-14.3,33.1-21.5,58.6-21.5s45,7.2,58.6,21.5c13.5,14.3,20.3,34.9,20.3,61.6v171.9c0,26.8-6.8,47.3-20.3,61.6-13.5,14.3-33.1,21.5-58.6,21.5s-45-7.2-58.6-21.5c-13.5-14.3-20.3-34.9-20.3-61.6v-171.9ZM949.4,454c0,12,2.4,20.4,7.3,25.3,4.9,4.9,11.4,7.3,19.6,7.3s14.7-2.4,19.6-7.3c4.9-4.9,7.3-13.3,7.3-25.3v-178.5c0-12-2.4-20.4-7.3-25.3-4.9-4.9-11.4-7.3-19.6-7.3s-14.7,2.4-19.6,7.3-7.3,13.3-7.3,25.3v178.5Z"/>
    <path class="st1" d="M1093.4,199.5h82.2c26.1,0,45.6,6.9,58.3,20.8,12.8,13.9,19.1,34.2,19.1,60.9v167.2c0,26.8-6.4,47.1-19.1,60.9-12.8,13.9-32.2,20.8-58.3,20.8h-82.2V199.5ZM1145.4,246.7v236.1h29.3c8.2,0,14.6-2.4,19.4-7.1,4.7-4.7,7.1-13.1,7.1-25v-171.9c0-12-2.4-20.3-7.1-25-4.7-4.7-11.2-7.1-19.4-7.1h-29.3Z"/>
    <path class="st1" d="M1332.4,420.5l-65.6-221h54.3l39.7,150.6,39.7-150.6h49.6l-65.6,221v109.6h-51.9v-109.6Z"/>
  </g>
  <g>
    <path class="st2" d="M1482.5,278.8c0-26.8,6.4-47.3,19.1-61.6,12.8-14.3,31.9-21.5,57.4-21.5s44.6,7.2,57.4,21.5c12.8,14.3,19.1,34.9,19.1,61.6v10.4h-49.1v-13.7c0-12-2.3-20.4-6.8-25.3-4.6-4.9-10.9-7.3-19.1-7.3s-14.6,2.4-19.1,7.3c-4.6,4.9-6.8,13.3-6.8,25.3s2.5,21.3,7.6,30c5,8.7,11.3,16.8,18.9,24.6,7.6,7.7,15.7,15.4,24.3,23.1,8.7,7.7,16.8,16.1,24.3,25.3,7.6,9.1,13.8,19.5,18.9,31.2,5,11.7,7.6,25.3,7.6,41.1,0,26.8-6.5,47.3-19.6,61.6-13.1,14.3-32.3,21.5-57.8,21.5s-44.8-7.2-57.8-21.5c-13.1-14.3-19.6-34.9-19.6-61.6v-20.3h49.1v23.6c0,12,2.4,20.3,7.3,25,4.9,4.7,11.4,7.1,19.6,7.1s14.7-2.4,19.6-7.1c4.9-4.7,7.3-13.1,7.3-25s-2.5-21.3-7.6-30c-5-8.7-11.3-16.8-18.9-24.6-7.6-7.7-15.7-15.4-24.3-23.1-8.7-7.7-16.8-16.1-24.3-25.3-7.6-9.1-13.9-19.5-18.9-31.2-5-11.6-7.6-25.3-7.6-41.1Z"/>
    <path class="st2" d="M1670.4,199.5h51.9v283.3h85.5v47.2h-137.4V199.5Z"/>
    <path class="st2" d="M1831,278.8c0-26.8,6.8-47.3,20.3-61.6,13.5-14.3,33.1-21.5,58.6-21.5s45,7.2,58.6,21.5c13.5,14.3,20.3,34.9,20.3,61.6v171.9c0,26.8-6.8,47.3-20.3,61.6-13.5,14.3-33.1,21.5-58.6,21.5s-45-7.2-58.6-21.5c-13.5-14.3-20.3-34.9-20.3-61.6v-171.9ZM1882.9,454c0,12,2.4,20.4,7.3,25.3,4.9,4.9,11.4,7.3,19.6,7.3s14.7-2.4,19.6-7.3c4.9-4.9,7.3-13.3,7.3-25.3v-178.5c0-12-2.4-20.4-7.3-25.3-4.9-4.9-11.4-7.3-19.6-7.3s-14.7,2.4-19.6,7.3-7.3,13.3-7.3,25.3v178.5Z"/>
    <path class="st2" d="M2011.8,199.5h160.6v47.2h-54.3v283.3h-51.9V246.7h-54.3v-47.2Z"/>
    <path class="st2" d="M2193.2,278.8c0-26.8,6.4-47.3,19.1-61.6,12.8-14.3,31.9-21.5,57.4-21.5s44.6,7.2,57.4,21.5c12.8,14.3,19.1,34.9,19.1,61.6v10.4h-49.1v-13.7c0-12-2.3-20.4-6.8-25.3-4.6-4.9-10.9-7.3-19.1-7.3s-14.6,2.4-19.1,7.3c-4.6,4.9-6.8,13.3-6.8,25.3s2.5,21.3,7.6,30c5,8.7,11.3,16.8,18.9,24.6,7.6,7.7,15.7,15.4,24.3,23.1,8.7,7.7,16.8,16.1,24.3,25.3,7.6,9.1,13.8,19.5,18.9,31.2,5,11.7,7.6,25.3,7.6,41.1,0,26.8-6.5,47.3-19.6,61.6-13.1,14.3-32.3,21.5-57.8,21.5s-44.8-7.2-57.8-21.5c-13.1-14.3-19.6-34.9-19.6-61.6v-20.3h49.1v23.6c0,12,2.4,20.3,7.3,25,4.9,4.7,11.4,7.1,19.6,7.1s14.7-2.4,19.6-7.1c4.9-4.7,7.3-13.1,7.3-25s-2.5-21.3-7.6-30c-5-8.7-11.3-16.8-18.9-24.6-7.6-7.7-15.7-15.4-24.3-23.1-8.7-7.7-16.8-16.1-24.3-25.3-7.6-9.1-13.9-19.5-18.9-31.2-5-11.6-7.6-25.3-7.6-41.1Z"/>
  </g>
  <path class="st0" d="M205.8,357l38.8-154.5s19.7-4.4,45.1-4.1v333.1s-104.9,8.8-136.5-22.8l20.8-65.8s43.4,12,68.3-9.3c6.7-5.8,21-25.5,15.7-46.6s-3.5-23.6-36.4-23.6-17.6.3-15.7-6.4Z"/>
  <path class="st1" d="M133.1,501.7l21.1-64.7s-52.8-20.3-31.5-93.6c1-3.5,30.1-115.1,30.1-115.1,0,0-120,1.4-129.3,48.4-9.3,47-31.3,165.8,19.7,200.6,0,0,37.7,22,89.9,24.3Z"/>
  <path class="st2" d="M207,396.8c-34.4,0-42.5-23.3-35.5-50.3,8.6-33.7,36-138.4,49.3-189.4-10.6-1.9-20.5-5.9-29.2-11.6l-52,205s-14.1,57.8,30.4,72.5c40.8,13.4,71,1.4,69.9-27.2l-32.9,1Z"/>
  <path class="st0" d="M204.4,381.4c-24.6,0-16.8-31.7-16.8-31.7l50.7-191.3c-1,0-2.1,0-3.1,0-4.9,0-9.7-.5-14.4-1.3-13.3,51-40.7,155.7-49.3,189.4-6.9,27,1.1,50.3,35.5,50.3l32.9-1c0-17.6-10.9-14.4-35.5-14.4Z"/>
  <path class="st1" d="M235.2,14.3c-35.2,0-63.8,28.6-63.8,63.8s28.6,63.8,63.8,63.8,63.8-28.6,63.8-63.8-28.6-63.8-63.8-63.8Z"/>
  <path class="st2" d="M185,92.1c0-35.1,28.4-63.5,63.5-63.5s7.7.4,11.4,1c-7.4-3.8-15.8-5.9-24.7-5.9-30.1,0-54.4,24.4-54.4,54.4s1.7,15.4,4.7,22.2c-.3-2.7-.5-5.4-.5-8.2Z"/>
</svg>